<svg width="33" height="20" viewBox="0 0 33 20" fill="none" xmlns="http://www.w3.org/2000/svg">
<g id="AMEX Icon">
<g id="amex">
<path id="Rectangle-1" d="M31.1349 0H2.68484C1.74678 0 0.986328 0.76045 0.986328 1.69851V18.3015C0.986328 19.2395 1.74678 20 2.68484 20H31.1349C32.073 20 32.8335 19.2395 32.8335 18.3015V1.69851C32.8335 0.76045 32.073 0 31.1349 0Z" fill="#2557D6"/>
<path id="Path" d="M0.986442 9.39194H2.51613L2.86104 8.56349H3.63323L3.97724 9.39194H6.98702V8.75857L7.25568 9.39464H8.81813L9.08679 8.74912V9.39194H16.5667L16.5632 8.03204H16.7079C16.8092 8.03553 16.8388 8.04487 16.8388 8.21148V9.39194H20.7074V9.07537C21.0195 9.24187 21.5048 9.39194 22.1435 9.39194H23.771L24.1193 8.56349H24.8915L25.2321 9.39194H28.3684V8.60501L28.8434 9.39194H31.3566V4.18994H28.8694V4.8043L28.5211 4.18994H25.9688V4.8043L25.649 4.18994H22.2015C21.6245 4.18994 21.1172 4.27015 20.7074 4.49369V4.18994H18.3284V4.49369C18.0677 4.26329 17.7124 4.18994 17.3173 4.18994H8.62573L8.04255 5.53353L7.44367 4.18994H4.70605V4.8043L4.40531 4.18994H2.07055L0.986328 6.66326V9.39194H0.986442ZM10.6424 8.6416H9.72453L9.72114 5.72042L8.42294 8.6416H7.63686L6.33527 5.71783V8.6416H4.51433L4.17032 7.80966H2.30622L1.95871 8.6416H0.98633L2.58957 4.91177H3.91974L5.44242 8.44315V4.91177H6.90365L8.07532 7.44201L9.15163 4.91177H10.6422V8.6416H10.6424ZM3.86434 7.03559L3.25156 5.54867L2.64229 7.03559H3.86434ZM14.295 8.6416H11.3042V4.91177H14.295V5.68847H12.1995V6.36077H14.2447V7.12532H12.1995V7.87018H14.295V8.6416ZM18.5097 5.91628C18.5097 6.51096 18.1111 6.81819 17.8788 6.91044C18.0747 6.98469 18.2421 7.11587 18.3217 7.22455C18.4481 7.41006 18.4699 7.57577 18.4699 7.90888V8.6416H17.5669L17.5635 8.17123C17.5635 7.9468 17.5851 7.62403 17.4222 7.4446C17.2914 7.31342 17.092 7.28496 16.7696 7.28496H15.8086V8.6416H14.9133V4.91177H16.9725C17.4301 4.91177 17.7672 4.92381 18.0567 5.09042C18.3399 5.25703 18.5097 5.50026 18.5097 5.91628ZM17.378 6.47013C17.2549 6.54449 17.1094 6.54697 16.9351 6.54697H15.8475V5.71852H16.9499C17.1059 5.71852 17.2687 5.72549 17.3744 5.78579C17.4906 5.84013 17.5624 5.95578 17.5624 6.11553C17.5624 6.27854 17.4941 6.40972 17.378 6.47013ZM19.9455 8.6416H19.032V4.91177H19.9455V8.6416ZM30.5502 8.6416H29.2815L27.5845 5.84214V8.6416H25.7611L25.4127 7.80966H23.5529L23.2149 8.6416H22.1673C21.7321 8.6416 21.1811 8.54575 20.8691 8.22906C20.5544 7.91237 20.3907 7.48341 20.3907 6.80514C20.3907 6.25198 20.4886 5.74629 20.8734 5.34669C21.1628 5.04902 21.6161 4.91177 22.233 4.91177H23.0998V5.71097H22.2512C21.9245 5.71097 21.74 5.75934 21.5623 5.93192C21.4097 6.08897 21.3049 6.38586 21.3049 6.7768C21.3049 7.1764 21.3847 7.46451 21.5511 7.65272C21.6889 7.80032 21.9394 7.8451 22.1751 7.8451H22.5772L23.839 4.91188H25.1804L26.6962 8.43977V4.91188H28.0594L29.6331 7.50951V4.91188H30.5502V8.6416ZM25.1082 7.03559L24.4887 5.54867L23.8725 7.03559H25.1082Z" fill="white"/>
<path id="path13" d="M32.8317 14.5972C32.6142 14.9139 32.1904 15.0745 31.6167 15.0745H29.8878V14.2745H31.6097C31.7805 14.2745 31.9001 14.2521 31.972 14.1821C32.0344 14.1244 32.0779 14.0406 32.0779 13.9388C32.0779 13.8301 32.0344 13.7438 31.9685 13.6921C31.9036 13.6351 31.809 13.6093 31.6531 13.6093C30.8125 13.5808 29.7637 13.6351 29.7637 12.4546C29.7637 11.9134 30.1087 11.3438 31.0482 11.3438H32.8316L32.8317 10.6016H31.1747C30.6746 10.6016 30.3114 10.7208 30.0542 10.9062V10.6016H27.6034C27.2115 10.6016 26.7514 10.6983 26.5338 10.9062V10.6016H22.1574V10.9062C21.8091 10.656 21.2214 10.6016 20.9501 10.6016H18.0634V10.9062C17.7879 10.6405 17.1751 10.6016 16.8016 10.6016H13.5708L12.8315 11.3983L12.1391 10.6016H7.31299V15.8072H12.0482L12.81 14.9978L13.5277 15.8072L16.4465 15.8098V14.5852H16.7334C17.1207 14.5912 17.5775 14.5756 17.9805 14.4021V15.8071H20.388V14.4503H20.5041C20.6523 14.4503 20.6669 14.4564 20.6669 14.6039V15.8069H27.9805C28.4448 15.8069 28.9302 15.6886 29.1989 15.4738V15.8069H31.5188C32.0015 15.8069 32.473 15.7396 32.8317 15.567V14.5972ZM18.3305 12.5949C18.3305 13.6313 17.554 13.8452 16.7714 13.8452H15.6543V15.0966H13.9141L12.8117 13.8616L11.666 15.0966H8.11974V11.3658H11.7206L12.8221 12.5887L13.9609 11.3658H16.8217C17.5322 11.3658 18.3305 11.5617 18.3305 12.5949ZM11.2126 14.3119H9.0114V13.5696H10.977V12.8084H9.0114V12.1301H11.256L12.2353 13.2173L11.2126 14.3119ZM14.7594 14.739L13.3848 13.2194L14.7594 11.748V14.739ZM16.7922 13.0802H15.6352V12.1301H16.8026C17.1258 12.1301 17.3502 12.2613 17.3502 12.5876C17.3502 12.9102 17.1362 13.0802 16.7922 13.0802ZM22.8535 11.3658H25.8416V12.1374H23.7451V12.8156H25.7904V13.5768H23.7451V14.3191L25.8416 14.3225V15.0966H22.8535V11.3658ZM21.7047 13.3628C21.904 13.4361 22.0669 13.5674 22.1433 13.676C22.2697 13.8582 22.288 14.0282 22.2916 14.357V15.0966H21.3928V14.6298C21.3928 14.4054 21.4145 14.0731 21.2481 13.8996C21.1173 13.7659 20.9179 13.734 20.5913 13.734H19.6345V15.0966H18.7348V11.3658H20.8018C21.2551 11.3658 21.5852 11.3858 21.8791 11.5419C22.1616 11.7119 22.3393 11.9448 22.3393 12.3704C22.3392 12.9658 21.9404 13.2697 21.7047 13.3628ZM21.1987 12.8912C21.0789 12.962 20.9308 12.968 20.7566 12.968H19.669V12.1301H20.7714C20.9308 12.1301 21.0903 12.1335 21.1987 12.1975C21.3147 12.2579 21.384 12.3735 21.384 12.5331C21.384 12.6928 21.3147 12.8213 21.1987 12.8912ZM29.2809 13.1288C29.4552 13.3085 29.5486 13.5353 29.5486 13.9193C29.5486 14.7218 29.0451 15.0965 28.1422 15.0965H26.3984V14.2965H28.1352C28.305 14.2965 28.4254 14.2741 28.5009 14.2041C28.5625 14.1464 28.6066 14.0626 28.6066 13.9608C28.6066 13.8521 28.5589 13.7658 28.4974 13.7141C28.4289 13.6571 28.3345 13.6313 28.1786 13.6313C27.3413 13.6028 26.2928 13.6571 26.2928 12.4766C26.2928 11.9354 26.6342 11.3658 27.5728 11.3658H29.3676V12.1599H27.7253C27.5625 12.1599 27.4567 12.166 27.3666 12.2273C27.2686 12.2877 27.2322 12.3773 27.2322 12.4957C27.2322 12.6364 27.3154 12.7322 27.4281 12.7736C27.5225 12.8063 27.624 12.8159 27.7765 12.8159L28.2585 12.8288C28.7445 12.8406 29.0781 12.9243 29.2809 13.1288ZM32.8335 12.1301H31.2018C31.0389 12.1301 30.9307 12.1362 30.8395 12.1975C30.7451 12.2579 30.7087 12.3476 30.7087 12.466C30.7087 12.6067 30.7884 12.7024 30.9045 12.7438C30.9989 12.7766 31.1004 12.7861 31.2495 12.7861L31.7347 12.7991C32.2244 12.8111 32.5512 12.8949 32.7505 13.0993C32.7867 13.1278 32.8086 13.1597 32.8335 13.1917V12.1301Z" fill="white"/>
</g>
</g>
</svg>
