<svg width="32" height="20" viewBox="0 0 32 20" fill="none" xmlns="http://www.w3.org/2000/svg">
<g id="Apple Pay">
<path id="XMLID_4_" d="M28.4608 0H2.20963C2.02077 0 1.81303 0.0188857 1.62417 0.0566572C1.43532 0.0944287 1.24646 0.151086 1.0576 0.245515C0.88763 0.321058 0.717658 0.453258 0.585458 0.585458C0.453258 0.717658 0.321058 0.88763 0.245515 1.0576C0.151086 1.22757 0.0944287 1.41643 0.0566572 1.62417C0.0188857 1.81303 0.0188857 2.02077 0 2.20963V17.7904C0 17.9792 0.0188857 18.187 0.0566572 18.3758C0.0944287 18.5647 0.151086 18.7535 0.245515 18.9424C0.339943 19.1124 0.453258 19.2823 0.585458 19.4145C0.717658 19.5467 0.88763 19.6789 1.0576 19.7545C1.22757 19.8489 1.41643 19.9056 1.62417 19.9433C1.81303 19.9811 2.02077 19.9811 2.20963 20H29.0463C29.2351 20 29.4429 19.9811 29.6317 19.9433C29.8206 19.9056 30.0094 19.8489 30.1983 19.7545C30.3683 19.6601 30.5382 19.5467 30.6704 19.4145C30.8026 19.2823 30.9348 19.1124 31.0104 18.9424C31.1048 18.7724 31.1615 18.5836 31.1992 18.3758C31.237 18.187 31.237 17.9792 31.2559 17.7904V17.526V2.79509V2.47403V2.20963C31.2559 2.02077 31.237 1.81303 31.1992 1.62417C31.1615 1.43532 31.1048 1.24646 31.0104 1.0576C30.916 0.88763 30.8026 0.717658 30.6704 0.585458C30.5382 0.453258 30.3683 0.321058 30.1983 0.245515C30.0283 0.151086 29.8395 0.0944287 29.6317 0.0566572C29.4429 0.0188857 29.2351 0.0188857 29.0463 0L28.4608 0Z" fill="black"/>
<path id="XMLID_3_" d="M28.4607 0.661133H29.0462C29.1972 0.661133 29.3672 0.680019 29.5372 0.698904C29.6883 0.71779 29.8016 0.755562 29.9149 0.812219C30.0282 0.868876 30.1226 0.944419 30.2171 1.03885C30.3115 1.13328 30.387 1.22771 30.4437 1.34102C30.5004 1.45433 30.5381 1.56765 30.557 1.71873C30.5948 1.88871 30.5948 2.05868 30.5948 2.20976V17.7905C30.5948 17.9416 30.5759 18.1116 30.557 18.2815C30.5381 18.4137 30.5004 18.5459 30.4437 18.6592C30.387 18.7726 30.3115 18.867 30.2171 18.9614C30.1226 19.0558 30.0282 19.1314 29.9149 19.188C29.8016 19.2447 29.6883 19.2825 29.5372 19.3014C29.3672 19.3391 29.1972 19.3391 29.0462 19.3391H2.20952C2.07732 19.3391 1.88846 19.3202 1.71849 19.3014C1.58629 19.2825 1.45409 19.2447 1.34078 19.1692C1.22746 19.1125 1.13303 19.037 1.0386 18.9425C0.944175 18.8481 0.868632 18.7537 0.811975 18.6404C0.755317 18.527 0.717546 18.4137 0.69866 18.2626C0.660889 18.0927 0.660889 17.9227 0.660889 17.7716V2.47416V2.20976C0.660889 2.05868 0.679774 1.88871 0.69866 1.71873C0.717546 1.58653 0.755317 1.45433 0.811975 1.34102C0.868632 1.22771 0.944175 1.13328 1.0386 1.03885C1.13303 0.944419 1.22746 0.868876 1.34078 0.812219C1.45409 0.755562 1.5674 0.71779 1.71849 0.698904C1.88846 0.661133 2.05843 0.661133 2.20952 0.661133H28.4607Z" fill="white"/>
<path id="Vector" d="M8.53649 6.72302C8.80089 6.38308 8.98975 5.92982 8.93309 5.47656C8.53649 5.49545 8.06435 5.74096 7.78106 6.06202C7.53555 6.34531 7.30892 6.81745 7.36558 7.25182C7.81884 7.30848 8.25321 7.06296 8.53649 6.72302ZM8.93309 7.36514C8.29098 7.32737 7.74329 7.72397 7.44112 7.72397C7.13895 7.72397 6.66681 7.38402 6.15689 7.38402C5.49589 7.40291 4.89155 7.76174 4.5516 8.36608C3.87172 9.55588 4.36275 11.3123 5.04263 12.2754C5.36369 12.7476 5.76029 13.2764 6.27021 13.2575C6.76123 13.2386 6.95009 12.9364 7.53555 12.9364C8.12101 12.9364 8.29098 13.2575 8.81978 13.2386C9.34858 13.2197 9.68852 12.7665 10.0096 12.2754C10.3873 11.7277 10.5384 11.1989 10.5384 11.1801C10.5195 11.1612 9.49967 10.7835 9.49967 9.61254C9.48078 8.63048 10.2929 8.15834 10.3306 8.13945C9.89627 7.45957 9.17861 7.38402 8.93309 7.36514Z" fill="black"/>
<g id="Group">
<path id="Vector_2" d="M14.4852 6.02441C15.8828 6.02441 16.846 6.98759 16.846 8.36625C16.846 9.76379 15.8639 10.727 14.4475 10.727H12.9177V13.1632H11.8035V6.02441H14.4852ZM12.9177 9.80156H14.1831C15.1462 9.80156 15.6939 9.27276 15.6939 8.38513C15.6939 7.47862 15.1462 6.9687 14.1831 6.9687H12.8988V9.80156H12.9177ZM17.1292 11.709C17.1292 10.8025 17.828 10.2359 19.0745 10.1604L20.5098 10.0848V9.68825C20.5098 9.10279 20.1132 8.76285 19.4711 8.76285C18.8478 8.76285 18.4701 9.06502 18.3757 9.51828H17.3559C17.4125 8.57399 18.2246 7.87522 19.5089 7.87522C20.7742 7.87522 21.5863 8.53622 21.5863 9.59382V13.1821H20.5665V12.3323H20.5476C20.2454 12.9177 19.5844 13.2765 18.9045 13.2765C17.8469 13.2765 17.1292 12.6344 17.1292 11.709ZM20.5098 11.2369V10.8214L19.2256 10.8969C18.5834 10.9347 18.2246 11.218 18.2246 11.6713C18.2246 12.1245 18.6023 12.4267 19.1689 12.4267C19.9243 12.4267 20.5098 11.9168 20.5098 11.2369ZM22.5306 15.1085V14.2397C22.6061 14.2586 22.795 14.2586 22.8705 14.2586C23.3615 14.2586 23.6259 14.0509 23.7959 13.5221C23.7959 13.5032 23.8903 13.201 23.8903 13.201L22.0018 7.98853H23.1538L24.4758 12.2378H24.4947L25.8167 7.98853H26.9498L25.0046 13.4843C24.5513 14.7496 24.0414 15.1462 22.9649 15.1462C22.8894 15.1273 22.625 15.1273 22.5306 15.1085Z" fill="black"/>
</g>
</g>
</svg>
