<svg width="21" height="20" viewBox="0 0 21 20" fill="none" xmlns="http://www.w3.org/2000/svg">
<g id="CashApp Icon">
<path id="Vector" d="M17.8335 0H3.8335C2.17664 0 0.833496 1.34315 0.833496 3V17C0.833496 18.6569 2.17664 20 3.8335 20H17.8335C19.4904 20 20.8335 18.6569 20.8335 17V3C20.8335 1.34315 19.4904 0 17.8335 0Z" fill="#00D632"/>
<path id="Vector_2" d="M14.0952 7.42578C14.2515 7.58203 14.5132 7.58203 14.6577 7.42578L15.439 6.61328C15.603 6.45703 15.5952 6.17578 15.4194 6.00391C14.8062 5.46875 14.0874 5.05859 13.314 4.80078L13.5601 3.60938C13.6147 3.34766 13.4194 3.10547 13.1577 3.10547H11.6421C11.4468 3.10938 11.2788 3.24609 11.2397 3.4375L11.021 4.49609C9.00537 4.59766 7.29443 5.625 7.29443 7.72266C7.29443 9.53906 8.7085 10.3164 10.2007 10.8555C11.6147 11.3945 12.3608 11.5938 12.3608 12.3516C12.3608 13.1328 11.6147 13.5898 10.5132 13.5898C9.50928 13.5898 8.4585 13.2539 7.646 12.4375C7.48584 12.2773 7.22803 12.2773 7.07178 12.4375L6.23193 13.2812C6.06787 13.4492 6.06787 13.7148 6.23193 13.8828C6.88818 14.5312 7.72412 15 8.67334 15.2617L8.44287 16.3789C8.38818 16.6406 8.57959 16.8789 8.84131 16.8828L10.3608 16.8945C10.5601 16.8945 10.728 16.7578 10.7671 16.5625L10.9858 15.5C13.4116 15.3359 14.8882 14 14.8882 12.0508C14.8882 10.2539 13.4155 9.49609 11.6304 8.87891C10.6108 8.5 9.72803 8.23828 9.72803 7.46094C9.72803 6.70312 10.5522 6.40234 11.3765 6.40234C12.4272 6.40234 13.439 6.83594 14.0991 7.43359L14.0952 7.42578Z" fill="white"/>
</g>
</svg>
