<svg width="50" height="50" viewBox="0 0 50 50" fill="none" xmlns="http://www.w3.org/2000/svg">
<g id="Clock Icon">
<path id="Vector" d="M3.44339 3.01758H46.0263V40.0134H3.44339V3.01758Z" fill="#D5D9CF"/>
<path id="Vector_2" d="M46.4296 40.4161H3.04004V2.62109H46.4296V40.4161ZM3.83926 39.6169H45.6229V3.42032H3.83926V39.6169Z" fill="#333336"/>
<path id="Vector_3" d="M43.5913 0.404297H5.70658C2.78605 0.404297 0.40332 2.7945 0.40332 5.70755V38.0126C0.40332 40.9331 2.79352 43.3159 5.70658 43.3159H43.5987C46.5193 43.3159 48.902 40.9257 48.902 38.0126V5.70755C48.902 2.78703 46.5118 0.404297 43.5913 0.404297ZM43.9199 35.7569C43.9199 37.176 42.7621 38.3338 41.343 38.3338H7.96233C6.54315 38.3338 5.3854 37.176 5.3854 35.7569V7.9633C5.3854 6.54412 6.54315 5.38637 7.96233 5.38637H41.343C42.7621 5.38637 43.9199 6.54412 43.9199 7.9633V35.7569Z" fill="#60933B"/>
<path id="Vector_4" d="M43.5913 43.7183H5.7066C2.562 43.7183 0 41.1563 0 38.0117V5.7066C0 2.562 2.562 0 5.7066 0H43.5987C46.7434 0 49.3053 2.562 49.3053 5.7066V38.0117C49.2979 41.1563 46.7434 43.7183 43.5913 43.7183ZM5.7066 0.799223C3.00269 0.799223 0.799223 3.00269 0.799223 5.7066V38.0117C0.799223 40.7156 3.00269 42.919 5.7066 42.919H43.5987C46.3027 42.919 48.5061 40.7156 48.5061 38.0117V5.7066C48.5061 3.00269 46.3027 0.799223 43.5987 0.799223H5.7066ZM41.3355 38.7362H7.96235C6.31909 38.7362 4.98207 37.3992 4.98207 35.7559V7.96235C4.98207 6.31909 6.31909 4.98207 7.96235 4.98207H41.343C42.9863 4.98207 44.3233 6.31909 44.3233 7.96235V35.7559C44.3158 37.3992 42.9788 38.7362 41.3355 38.7362ZM7.96235 5.78877C6.75979 5.78877 5.78877 6.76725 5.78877 7.96235V35.7559C5.78877 36.9585 6.76725 37.9295 7.96235 37.9295H41.343C42.5456 37.9295 43.5166 36.951 43.5166 35.7559V7.96235C43.5166 6.75978 42.5381 5.78877 41.343 5.78877H7.96235Z" fill="#333336"/>
<path id="Vector_5" d="M24.6485 9.84499C24.4244 9.84499 24.2451 9.66572 24.2451 9.44164V5.38577C24.2451 5.16169 24.4244 4.98242 24.6485 4.98242C24.8725 4.98242 25.0518 5.16169 25.0518 5.38577V9.44164C25.0518 9.66572 24.8725 9.84499 24.6485 9.84499ZM24.6485 38.6992C24.4244 38.6992 24.2451 38.5199 24.2451 38.2958V34.24C24.2451 34.0159 24.4244 33.8366 24.6485 33.8366C24.8725 33.8366 25.0518 34.0159 25.0518 34.24V38.2958C25.0518 38.5199 24.8725 38.6992 24.6485 38.6992Z" fill="#333336"/>
<path id="Vector_6" d="M9.57543 22.2579H5.51956C5.29548 22.2579 5.11621 22.0786 5.11621 21.8545C5.11621 21.6304 5.29548 21.4512 5.51956 21.4512H9.57543C9.79951 21.4512 9.97878 21.6304 9.97878 21.8545C9.97131 22.0786 9.79204 22.2579 9.57543 22.2579Z" fill="#333336"/>
<path id="Vector_7" d="M43.9202 22.2579H39.8643C39.6402 22.2579 39.4609 22.0786 39.4609 21.8545C39.4609 21.6304 39.6402 21.4512 39.8643 21.4512H43.9202C44.1442 21.4512 44.3235 21.6304 44.3235 21.8545C44.316 22.0786 44.1368 22.2579 43.9202 22.2579Z" fill="#333336"/>
<path id="Vector_8" d="M19.7568 21.8553C19.7568 22.4978 19.8834 23.134 20.1293 23.7276C20.3751 24.3212 20.7355 24.8605 21.1898 25.3148C21.6441 25.7691 22.1834 26.1295 22.777 26.3754C23.3706 26.6212 24.0068 26.7478 24.6493 26.7478C25.2918 26.7478 25.928 26.6212 26.5215 26.3754C27.1151 26.1295 27.6544 25.7691 28.1088 25.3148C28.5631 24.8605 28.9234 24.3212 29.1693 23.7276C29.4152 23.134 29.5417 22.4978 29.5417 21.8553C29.5417 21.2128 29.4152 20.5767 29.1693 19.9831C28.9234 19.3895 28.5631 18.8502 28.1088 18.3959C27.6544 17.9415 27.1151 17.5812 26.5215 17.3353C25.928 17.0894 25.2918 16.9629 24.6493 16.9629C24.0068 16.9629 23.3706 17.0894 22.777 17.3353C22.1834 17.5812 21.6441 17.9415 21.1898 18.3959C20.7355 18.8502 20.3751 19.3895 20.1293 19.9831C19.8834 20.5767 19.7568 21.2128 19.7568 21.8553Z" fill="black"/>
<path id="Vector_9" d="M24.6487 27.1509C21.7281 27.1509 19.3604 24.7756 19.3604 21.8625C19.3604 18.9495 21.7356 16.5742 24.6487 16.5742C27.5617 16.5742 29.937 18.9495 29.937 21.8625C29.937 24.7756 27.5692 27.1509 24.6487 27.1509ZM24.6487 17.366C22.1763 17.366 20.1596 19.3827 20.1596 21.8551C20.1596 24.3274 22.1763 26.3442 24.6487 26.3442C27.121 26.3442 29.1378 24.3274 29.1378 21.8551C29.1378 19.3827 27.121 17.366 24.6487 17.366Z" fill="#333336"/>
<path id="Vector_10" d="M22.834 21.8561C22.834 22.0944 22.8809 22.3305 22.9721 22.5507C23.0634 22.7709 23.1971 22.971 23.3656 23.1395C23.5341 23.3081 23.7342 23.4418 23.9545 23.533C24.1747 23.6242 24.4107 23.6711 24.649 23.6711C24.8874 23.6711 25.1234 23.6242 25.3436 23.533C25.5638 23.4418 25.7639 23.3081 25.9325 23.1395C26.101 22.971 26.2347 22.7709 26.3259 22.5507C26.4172 22.3305 26.4641 22.0944 26.4641 21.8561C26.4641 21.3747 26.2729 20.913 25.9325 20.5726C25.5921 20.2322 25.1304 20.041 24.649 20.041C24.1677 20.041 23.706 20.2322 23.3656 20.5726C23.0252 20.913 22.834 21.3747 22.834 21.8561Z" fill="#D5D9CF"/>
<path id="Vector_11" d="M24.6494 24.0742C23.4319 24.0742 22.4385 23.0808 22.4385 21.8633C22.4385 20.6458 23.4319 19.6523 24.6494 19.6523C25.8669 19.6523 26.8603 20.6458 26.8603 21.8633C26.8603 23.0808 25.8669 24.0742 24.6494 24.0742ZM24.6494 20.4441C23.8726 20.4441 23.2377 21.079 23.2377 21.8558C23.2377 22.6326 23.8726 23.2675 24.6494 23.2675C25.4262 23.2675 26.0611 22.6326 26.0611 21.8558C26.0611 21.079 25.4262 20.4441 24.6494 20.4441Z" fill="#333336"/>
<path id="Vector_12" d="M35.9498 22.2579H26.6504C26.4263 22.2579 26.2471 22.0786 26.2471 21.8545C26.2471 21.6304 26.4263 21.4512 26.6504 21.4512H35.9498C36.1739 21.4512 36.3531 21.6304 36.3531 21.8545C36.3457 22.0786 36.1664 22.2579 35.9498 22.2579Z" fill="#333336"/>
<path id="Vector_13" d="M22.8334 20.0482L12.1074 12.5938L22.8334 20.0482Z" fill="#D5D9CF"/>
<path id="Vector_14" d="M22.8341 20.4444C22.7519 20.4444 22.6772 20.422 22.6026 20.3697L11.8765 12.9153C11.6973 12.7883 11.6525 12.5418 11.7794 12.355C11.9064 12.1758 12.1529 12.131 12.3396 12.2579L23.0657 19.7124C23.2449 19.8394 23.2897 20.0859 23.1628 20.2726C23.0881 20.3846 22.9611 20.4444 22.8341 20.4444Z" fill="#333336"/>
<path id="Vector_15" d="M40.5515 49.5962H8.87389C7.79083 49.5962 7.01401 48.558 7.32026 47.5197L8.56764 43.3145H40.8577L42.1051 47.5197C42.4114 48.558 41.6346 49.5962 40.5515 49.5962Z" fill="black"/>
<path id="Vector_16" d="M40.5503 50.0009H8.87272C8.23035 50.0009 7.64027 49.7021 7.25934 49.1867C6.8784 48.6713 6.75889 48.0215 6.93815 47.409L8.2677 42.9199H41.1554L42.4849 47.409C42.6642 48.029 42.5521 48.6713 42.1637 49.1867C41.7828 49.7021 41.1927 50.0009 40.5503 50.0009ZM8.86525 43.7191L7.7075 47.6331C7.59546 48.0066 7.67015 48.395 7.9017 48.7087C8.13325 49.0224 8.49178 49.1942 8.87272 49.1942H40.5503C40.9388 49.1942 41.2898 49.0149 41.5288 48.7087C41.7604 48.395 41.8276 48.0066 41.723 47.6331L40.5578 43.7191H8.86525Z" fill="#333336"/>
</g>
</svg>
