<svg width="55" height="44" viewBox="0 0 55 44" fill="none" xmlns="http://www.w3.org/2000/svg">
<g id="Email Icon">
<path id="Vector" d="M54.8581 6.14594C54.6102 4.89705 54.0564 3.75419 53.2831 2.81005C53.12 2.60434 52.9496 2.42011 52.765 2.23588C51.3948 0.858947 49.4717 0 47.3709 0H7.62922C5.52837 0 3.61217 0.858947 2.23556 2.23588C2.05133 2.42011 1.88096 2.60434 1.71746 2.81005C0.943703 3.75408 0.389942 4.89705 0.148887 6.14594C0.0498439 6.62794 0 7.12606 0 7.62965V35.5415C0 36.6122 0.22709 37.6416 0.632071 38.5711C1.00773 39.4584 1.56159 40.2613 2.23545 40.9345C2.40625 41.1048 2.57587 41.2615 2.76096 41.4172C4.08075 42.5103 5.78436 43.1704 7.62922 43.1704H47.3709C49.2164 43.1704 50.9274 42.5103 52.2396 41.4104C52.4241 41.2615 52.5946 41.1048 52.765 40.9345C53.4385 40.2613 53.9923 39.4584 54.3757 38.5711V38.5642C54.7805 37.6347 55 36.6122 55 35.5416V7.62965C55.0001 7.12606 54.951 6.62794 54.8581 6.14594ZM4.99609 4.99609C5.67769 4.31525 6.59303 3.90307 7.62922 3.90307H47.3709C48.4071 3.90307 49.3305 4.31525 50.004 4.99609C50.1245 5.11737 50.2381 5.25251 50.3383 5.38679L29.5084 23.5406C28.9339 24.0441 28.2243 24.2928 27.5001 24.2928C26.7831 24.2928 26.0739 24.0441 25.4918 23.5406L4.66985 5.37905C4.76202 5.24478 4.87557 5.11737 4.99609 4.99609ZM3.90307 35.5415V9.41802L18.977 22.5681L3.9107 35.7042C3.90307 35.6544 3.90307 35.5983 3.90307 35.5415ZM47.3709 39.2665H7.62922C6.95451 39.2665 6.32319 39.0892 5.78436 38.7775L21.6805 24.9245L23.1645 26.2155C24.4064 27.2947 25.9605 27.8412 27.5001 27.8412C29.0476 27.8412 30.6015 27.2947 31.8433 26.2155L33.3266 24.9245L49.2165 38.7775C48.6769 39.0892 48.0456 39.2665 47.3709 39.2665ZM51.097 35.5415C51.097 35.5983 51.097 35.6544 51.0897 35.7042L36.0236 22.5757L51.097 9.425V35.5415Z" fill="black"/>
</g>
</svg>
