<svg width="59" height="50" viewBox="0 0 59 50" fill="none" xmlns="http://www.w3.org/2000/svg">
<path id="Phone Icon" d="M54.2417 22.0301L54.2416 22.0301C52.6439 23.2025 50.426 23.938 47.9671 23.9239C46.8159 23.9174 46.0496 23.5643 45.5133 23.0342C44.9608 22.4884 44.5945 21.6973 44.3668 20.722L44.3668 20.7219C43.9794 19.0621 44.0326 17.0978 44.0798 15.3539L44.0813 15.2967L44.0813 15.2966C44.0904 14.9617 44.0992 14.6334 44.1053 14.3119L44.1053 14.3113C44.1066 14.2446 44.0971 14.1781 44.077 14.1142L44.077 14.114C43.4398 12.0849 41.4885 10.6634 39.0683 9.7497L39.3332 9.04804L39.0683 9.7497C36.6246 8.8271 33.5623 8.36519 30.4449 8.34726C27.3251 8.32934 24.1107 8.75585 21.3567 9.63985C18.6186 10.5187 16.2514 11.8774 14.9376 13.7864L54.2417 22.0301ZM54.2417 22.0301C55.8409 20.8565 56.7858 19.2763 56.8177 17.5809C56.8709 14.7477 54.917 10.2274 44.5696 5.53067C34.3124 0.874708 25.1459 0.813947 13.9122 5.36167L14.1937 6.05687M54.2417 22.0301L14.1937 6.05687M14.1937 6.05687L13.9122 5.36168C8.27576 7.64352 5.32737 9.90803 3.77488 11.9296L4.29725 12.3308M14.1937 6.05687L4.29725 12.3308M4.29725 12.3308L3.77488 11.9296C2.2408 13.9272 2.02396 15.7461 1.99511 17.2818C1.9633 18.9749 2.84622 20.5596 4.3954 21.7469L4.85162 21.1517M4.29725 12.3308L4.85162 21.1517M4.85162 21.1517L4.3954 21.7469C5.94417 22.9339 8.13046 23.6949 10.5895 23.709C11.7404 23.7155 12.5245 23.3713 13.0863 22.8426L13.0865 22.8424M4.85162 21.1517L13.0865 22.8424M13.0865 22.8424C13.664 22.2985 14.0612 21.5076 14.3256 20.5344C14.7756 18.8783 14.7962 16.9129 14.8144 15.1683L14.815 15.1117M13.0865 22.8424L14.815 15.1117M14.815 15.1117L14.815 15.1116L14.8151 15.1055C14.8186 14.7724 14.822 14.4466 14.828 14.1275L14.815 15.1117ZM47.9601 25.1682L47.96 25.1682C46.5295 25.16 45.437 24.7081 44.6389 23.9194L44.6388 23.9193C43.8565 23.1464 43.4115 22.1036 43.1551 21.0048L42.4247 21.1752L43.1551 21.0047C42.7269 19.1702 42.7865 16.9562 42.8386 15.1711L42.8386 15.1704C42.8399 15.1245 42.8412 15.0787 42.8425 15.0333C42.8473 14.8638 42.852 14.6982 42.856 14.5393L42.8598 14.3851L42.8025 14.2419C42.2546 12.8727 40.8013 11.734 38.6289 10.9138L38.364 11.6154L38.6288 10.9138C36.3602 10.0573 33.4529 9.60884 30.4379 9.59152C27.4256 9.57418 24.3449 9.98743 21.737 10.8246C19.3089 11.604 17.3709 12.7239 16.2327 14.1306L16.0682 14.3339L16.0658 14.5954L16.0617 15.0333L16.0617 15.0338C16.0465 16.8191 16.0231 19.0322 15.5264 20.8606C15.2288 21.9556 14.7461 22.9888 13.9394 23.7482L13.9394 23.7483C13.1174 24.5221 12.0128 24.9614 10.5823 24.9532C7.8803 24.9376 5.4239 24.1028 3.63846 22.7345C1.85142 21.3649 0.710218 19.4335 0.751069 17.2585L0.001201 17.2444L0.751069 17.2585C0.782534 15.5822 1.02927 13.4619 2.78805 11.1718L2.19771 10.7184L2.78805 11.1717C4.52858 8.90531 7.70286 6.53306 13.4453 4.20834C24.9695 -0.457008 34.492 -0.410201 45.0839 4.39767L45.3939 3.71473L45.0839 4.39767C55.5901 9.16647 58.1289 14.0169 58.0616 17.6043C58.0208 19.7772 56.8097 21.6891 54.9778 23.0333C53.146 24.3775 50.6621 25.1838 47.9601 25.1682ZM42.9403 26.9478L42.9404 26.9479L44.3215 27.408C47.2171 28.3734 49.1701 31.0831 49.1701 34.1349V42.1591C49.1701 46.0752 45.9953 49.25 42.0792 49.25H16.9888C13.0727 49.25 9.89806 46.0753 9.89806 42.1591V34.1349C9.89806 31.0831 11.8511 28.3734 14.7465 27.408L16.1275 26.9479L16.1276 26.9478C18.0263 26.315 19.307 24.538 19.307 22.5367C19.307 19.065 22.1213 16.2506 25.593 16.2506H33.4751C36.9467 16.2506 39.7612 19.065 39.7612 22.5367C39.7612 24.538 41.0416 26.3149 42.9403 26.9478ZM15.264 28.9604L15.2639 28.9604C13.0367 29.7029 11.5343 31.7871 11.5343 34.1349V42.1591C11.5343 45.1716 13.9764 47.6138 16.9888 47.6138H42.0792C45.0918 47.6138 47.5336 45.1716 47.5336 42.1591V34.1349C47.5336 31.7871 46.0314 29.7029 43.804 28.9604L43.804 28.9604L42.4231 28.5002C42.4231 28.5002 42.423 28.5002 42.423 28.5001C39.856 27.6444 38.1247 25.2424 38.1247 22.5367C38.1247 19.9687 36.0431 17.8869 33.4751 17.8869H25.593C23.025 17.8869 20.9433 19.9687 20.9433 22.5367C20.9433 25.2424 19.2119 27.6445 16.645 28.5002L15.264 28.9604ZM14.828 14.1274C14.8303 14.0055 14.8684 13.8869 14.9375 13.7864L14.828 14.1274ZM29.5338 30.4319C26.5215 30.4319 24.0793 32.8741 24.0793 35.8864C24.0793 38.899 26.5215 41.3408 29.5338 41.3408C32.5463 41.3408 34.9882 38.8989 34.9882 35.8864C34.9882 32.8741 32.5464 30.4319 29.5338 30.4319ZM22.443 35.8864C22.443 31.9702 25.6176 28.7957 29.5338 28.7957C33.45 28.7957 36.6244 31.9702 36.6244 35.8864C36.6244 39.8026 33.4499 42.9773 29.5338 42.9773C25.6176 42.9773 22.443 39.8026 22.443 35.8864Z" fill="black" stroke="black" stroke-width="1.5"/>
</svg>
