<svg width="235" height="56" viewBox="0 0 235 56" fill="none" xmlns="http://www.w3.org/2000/svg">
<g id="Social Media Icons">
<path id="Vector" fill-rule="evenodd" clip-rule="evenodd" d="M47.5 0C51.6423 0 55 3.35788 55 7.5V47.5C55 51.6423 51.6423 55 47.5 55H7.5C3.35788 55 0 51.6423 0 47.5V7.5C0 3.35788 3.35788 0 7.5 0H47.5ZM47.5 5C48.8807 5 50 6.1193 50 7.5V47.5C50 48.8807 48.8807 50 47.5 50H35V32.4997H40.1905C41.2665 32.4997 42.2218 31.8113 42.5623 30.7903L43.6697 27.4677C44.0745 26.2535 43.1707 24.9998 41.891 24.9998H35V19.9998C35 18.7498 36.25 17.4998 37.5 17.4998H42.5C43.8807 17.4998 45 16.3805 45 14.9998V13.2848C45 12.4773 44.4842 11.7532 43.7033 11.5472C40.4263 10.6824 37.5 10.6824 37.5 10.6824C31.25 10.6824 27.5 14.9998 27.5 18.7498V24.9998H22.5C21.1193 24.9998 20 26.119 20 27.4998V29.9998C20 31.3805 21.1193 32.4997 22.5 32.4997H27.5V50H7.5C6.1193 50 5 48.8807 5 47.5V7.5C5 6.1193 6.1193 5 7.5 5H47.5Z" fill="#60933B"/>
<g id="Group">
<path id="Vector_2" d="M117.511 0C102.315 0 90 12.3154 90 27.5107C90 38.7729 96.7702 48.4447 106.463 52.7002C106.377 50.7874 106.442 48.4662 106.936 46.3814C107.474 44.1461 110.483 31.4009 110.483 31.4009C110.483 31.4009 109.601 29.6385 109.601 27.0594C109.601 22.9758 111.966 19.9453 114.91 19.9453C117.403 19.9453 118.628 21.8152 118.628 24.0719C118.628 26.5865 117.016 30.3478 116.2 33.8296C115.512 36.7526 117.661 39.1168 120.541 39.1168C125.764 39.1168 129.267 32.4326 129.267 24.5017C129.267 18.4838 125.205 13.9703 117.812 13.9703C109.472 13.9703 104.271 20.1817 104.271 27.1454C104.271 29.5525 104.98 31.229 106.077 32.54C106.592 33.1418 106.657 33.3783 106.463 34.066C106.334 34.5604 106.034 35.7854 105.905 36.2798C105.711 36.9676 105.152 37.2255 104.529 36.9675C100.682 35.3986 98.898 31.186 98.898 26.4576C98.898 18.6342 105.496 9.26338 118.564 9.26338C129.074 9.26338 135.973 16.8718 135.973 25.0176C135.973 35.8069 129.977 43.8667 121.122 43.8667C118.156 43.8667 115.361 42.2548 114.394 40.4494C114.394 40.4494 112.804 46.7897 112.46 48.0148C111.88 50.1426 110.741 52.2489 109.687 53.9038C112.159 54.6346 114.781 55.043 117.489 55.043C132.685 55.043 145 42.7276 145 27.5322C145.021 12.3154 132.706 0 117.511 0Z" fill="#60933B"/>
</g>
<g id="Insta Icon">
<path id="Vector_3" fill-rule="evenodd" clip-rule="evenodd" d="M207.5 42.5C215.784 42.5 222.5 35.7843 222.5 27.5C222.5 19.2157 215.784 12.5 207.5 12.5C199.216 12.5 192.5 19.2157 192.5 27.5C192.5 35.7843 199.216 42.5 207.5 42.5ZM207.5 37.5C213.023 37.5 217.5 33.0228 217.5 27.5C217.5 21.9771 213.023 17.5 207.5 17.5C201.977 17.5 197.5 21.9771 197.5 27.5C197.5 33.0228 201.977 37.5 207.5 37.5Z" fill="#60933B"/>
<path id="Vector_4" d="M222.5 10C221.119 10 220 11.1193 220 12.5C220 13.8807 221.119 15 222.5 15C223.881 15 225 13.8807 225 12.5C225 11.1193 223.881 10 222.5 10Z" fill="#60933B"/>
<path id="Vector_5" fill-rule="evenodd" clip-rule="evenodd" d="M181.635 8.19015C180 11.3988 180 15.5992 180 24V31C180 39.4007 180 43.6012 181.635 46.8097C183.073 49.6322 185.368 51.927 188.19 53.365C191.399 55 195.599 55 204 55H211C219.401 55 223.601 55 226.81 53.365C229.632 51.927 231.927 49.6322 233.365 46.8097C235 43.6012 235 39.4007 235 31V24C235 15.5992 235 11.3988 233.365 8.19015C231.927 5.3677 229.632 3.073 226.81 1.6349C223.601 0 219.401 0 211 0H204C195.599 0 191.399 0 188.19 1.6349C185.368 3.073 183.073 5.3677 181.635 8.19015ZM211 5H204C199.717 5 196.806 5.0039 194.555 5.18775C192.363 5.36685 191.242 5.69148 190.46 6.08993C188.578 7.04868 187.049 8.57847 186.09 10.4601C185.691 11.2421 185.367 12.3631 185.188 14.5552C185.004 16.8056 185 19.7171 185 24V31C185 35.283 185.004 38.1943 185.188 40.4448C185.367 42.637 185.691 43.758 186.09 44.54C187.049 46.4215 188.578 47.9512 190.46 48.91C191.242 49.3085 192.363 49.6333 194.555 49.8122C196.806 49.996 199.717 50 204 50H211C215.283 50 218.194 49.996 220.445 49.8122C222.637 49.6333 223.758 49.3085 224.54 48.91C226.422 47.9512 227.951 46.4215 228.91 44.54C229.308 43.758 229.633 42.637 229.812 40.4448C229.996 38.1943 230 35.283 230 31V24C230 19.7171 229.996 16.8056 229.812 14.5552C229.633 12.3631 229.308 11.2421 228.91 10.4601C227.951 8.57847 226.422 7.04868 224.54 6.08993C223.758 5.69148 222.637 5.36685 220.445 5.18775C218.194 5.0039 215.283 5 211 5Z" fill="#60933B"/>
</g>
</g>
</svg>
