<svg width="58" height="54" viewBox="0 0 58 54" fill="none" xmlns="http://www.w3.org/2000/svg">
<g id="Storefront Icon">
<path id="Vector" d="M52 50.0762V25.0762" stroke="black" stroke-width="3" stroke-linecap="round" stroke-linejoin="round"/>
<path id="Vector_2" d="M5.8457 25.0762V50.0762" stroke="black" stroke-width="3" stroke-linecap="round" stroke-linejoin="round"/>
<path id="Vector_3" d="M44.1234 2H13.722C11.103 2 8.7376 3.44231 7.72078 5.66106L2.51645 17.024C0.764047 20.8474 3.6739 25.1791 8.18832 25.3173C8.26845 25.3173 8.34858 25.3173 8.42871 25.3173C12.2027 25.3173 15.2616 22.2909 15.2616 19.0397C15.2616 22.2849 18.3217 25.3173 22.0958 25.3173C25.8698 25.3173 28.9227 22.5072 28.9227 19.0397C28.9227 22.2849 31.9816 25.3173 35.7556 25.3173C39.5297 25.3173 42.5898 22.5072 42.5898 19.0397C42.5898 22.5072 45.6487 25.3173 49.4227 25.3173C49.5028 25.3173 49.581 25.3173 49.6571 25.3173C54.1715 25.1767 57.0814 20.845 55.3289 17.024L50.1246 5.66106C49.1078 3.44231 46.7424 2 44.1234 2Z" stroke="black" stroke-width="3" stroke-linecap="round" stroke-linejoin="round"/>
<path id="Vector_4" d="M2 52H55.8462" stroke="black" stroke-width="3" stroke-linecap="round" stroke-linejoin="round"/>
<path id="Vector_5" d="M14.4998 30.8457H24.1152C24.8803 30.8457 25.614 31.1496 26.155 31.6906C26.6959 32.2316 26.9998 32.9653 26.9998 33.7303V44.3072H11.6152V33.7303C11.6152 32.9653 11.9191 32.2316 12.4601 31.6906C13.0011 31.1496 13.7348 30.8457 14.4998 30.8457Z" stroke="black" stroke-width="3" stroke-linecap="round" stroke-linejoin="round"/>
<path id="Vector_6" d="M32.7695 51.9995V33.7303C32.7695 32.9653 33.0734 32.2316 33.6144 31.6906C34.1554 31.1496 34.8891 30.8457 35.6541 30.8457H43.3465C44.1115 30.8457 44.8452 31.1496 45.3862 31.6906C45.9272 32.2316 46.2311 32.9653 46.2311 33.7303V51.9995" stroke="black" stroke-width="3" stroke-linecap="round" stroke-linejoin="round"/>
</g>
</svg>
