<svg width="32" height="22" viewBox="0 0 32 22" fill="none" xmlns="http://www.w3.org/2000/svg">
<g id="Visa Icon">
<path id="Vector" d="M28.2771 1H3.59629C2.3037 1 1.25586 2.04784 1.25586 3.34043V18.6596C1.25586 19.9522 2.3037 21 3.59629 21H28.2771C29.5697 21 30.6176 19.9522 30.6176 18.6596V3.34043C30.6176 2.04784 29.5697 1 28.2771 1Z" fill="white" stroke="#D9D9D9" stroke-width="0.857143"/>
<path id="Vector_2" fill-rule="evenodd" clip-rule="evenodd" d="M10.086 14.6242H8.28152L6.92832 9.46178C6.86411 9.22434 6.72773 9.01438 6.52713 8.91544C6.02649 8.6668 5.47483 8.46889 4.87305 8.3691V8.17034H7.77998C8.18122 8.17034 8.48211 8.46889 8.53224 8.81565L9.23437 12.5395L11.038 8.17034H12.7924L10.086 14.6242ZM13.7954 14.6242H12.0912L13.4945 8.17034H15.1987L13.7954 14.6242ZM17.4036 9.95825C17.4537 9.61068 17.7546 9.41191 18.1057 9.41191C18.6573 9.36199 19.2582 9.46182 19.7598 9.70961L20.0607 8.32004C19.5591 8.12127 19.0075 8.02148 18.5069 8.02148C16.8528 8.02148 15.6492 8.91544 15.6492 10.1562C15.6492 11.1 16.5017 11.5956 17.1036 11.8942C17.7546 12.1919 18.0054 12.3906 17.9552 12.6883C17.9552 13.1349 17.4537 13.3337 16.9531 13.3337C16.3513 13.3337 15.7495 13.1848 15.1987 12.9361L14.8978 14.3265C15.4996 14.5743 16.1507 14.6742 16.7525 14.6742C18.6072 14.7232 19.7598 13.8301 19.7598 12.4896C19.7598 10.8014 17.4036 10.7025 17.4036 9.95825ZM25.7241 14.6242L24.3709 8.17034H22.9175C22.6165 8.17034 22.3156 8.3691 22.2153 8.6668L19.7096 14.6242H21.464L21.8142 13.6812H23.9697L24.1703 14.6242H25.7241ZM23.1682 9.90838L23.6688 12.3407H22.2655L23.1682 9.90838Z" fill="#172B85"/>
</g>
</svg>
